<?xml version="1.0" encoding="UTF-8"?> <svg xmlns="http://www.w3.org/2000/svg" width="158" height="76" viewBox="0 0 158 76" fill="none"><path fill-rule="evenodd" clip-rule="evenodd" d="M5.86918 25.7682C3.5545 27.8859 1.83141 30.5701 0.869624 33.5562C-0.0921658 36.5424 -0.259471 39.7277 0.384189 42.7982C0.929316 45.7639 2.1785 48.5554 4.02671 50.938C5.87493 53.3207 8.26816 55.2247 11.0052 56.4902C13.7422 57.7556 16.7431 58.3454 19.7555 58.21C22.7678 58.0747 25.7037 57.218 28.3162 55.7122C32.7942 53.1942 37.2542 50.6472 41.7162 48.1122C44.6682 46.4382 43.2072 47.3932 46.2262 45.6762C44.7972 43.1882 46.1472 45.5542 44.0502 41.9622C43.4872 42.3322 34.1352 47.6032 27.7202 51.2842C24.4202 53.1842 20.3752 54.3972 17.2842 53.9062C15.5456 53.7241 13.8666 53.1699 12.3612 52.2812V26.4152C14.734 24.9998 17.5015 24.3914 20.2492 24.6812C23.4399 24.8835 26.4629 26.1813 28.8072 28.3552L32.4912 26.1552C32.3313 25.9651 32.1471 25.797 31.9432 25.6552C30.3067 24.2894 28.5246 23.1083 26.6292 22.1332C23.2071 20.569 19.3912 20.0791 15.6849 20.7281C11.9787 21.377 8.55624 23.1343 5.86918 25.7682Z" fill="#224390"></path><path fill-rule="evenodd" clip-rule="evenodd" d="M66.0873 52.8988C68.4011 50.7804 70.1235 48.0962 71.0853 45.1102C72.047 42.1243 72.2148 38.9393 71.5723 35.8688C71.0271 32.9029 69.7777 30.1112 67.9293 27.7285C66.081 25.3458 63.6875 23.4417 60.9503 22.1763C58.2131 20.9108 55.212 20.321 52.1994 20.4565C49.1869 20.592 46.2509 21.4488 43.6383 22.9548C39.1603 25.4728 34.7033 28.0198 30.2383 30.5548C27.2863 32.2288 28.7473 31.2738 25.7283 32.9908C27.1573 35.4788 25.8073 33.1128 27.9043 36.7038C28.4673 36.3338 37.8193 31.0628 44.2343 27.3818C47.5343 25.4818 51.4343 24.2688 54.5213 24.7598C56.226 24.8882 57.8704 25.4462 59.3013 26.3818V52.2508C56.9946 53.6967 54.2623 54.3087 51.5593 53.9848C48.3907 53.7815 45.3914 52.4827 43.0753 50.3108L39.4283 52.5108C39.595 52.7008 39.7852 52.8688 39.9943 53.0108C41.6359 54.375 43.4223 55.5551 45.3213 56.5298C48.7442 58.0936 52.5605 58.5836 56.2675 57.9355C59.9745 57.2873 63.3981 55.5313 66.0873 52.8988Z" fill="#224390"></path><path d="M93.5061 34.4189C93.463 34.063 93.3298 33.7239 93.1191 33.4339C92.9256 33.187 92.6832 32.9827 92.4071 32.8339C91.7928 32.5384 91.1165 32.3948 90.4351 32.4149C89.802 32.3728 89.1685 32.4897 88.5921 32.7549C88.4122 32.8477 88.262 32.9893 88.1589 33.1635C88.0558 33.3377 88.0039 33.5375 88.0091 33.7399C88.0081 33.9521 88.0607 34.1611 88.1619 34.3476C88.2631 34.5341 88.4097 34.692 88.5881 34.8069C89.0548 35.1281 89.5663 35.3788 90.1061 35.5509C90.8067 35.7895 91.5198 35.9898 92.2421 36.1509C93.0381 36.3342 93.8568 36.5452 94.6981 36.7839C95.5343 37.0181 96.3552 37.304 97.1561 37.6399C97.9283 37.9603 98.6475 38.3959 99.2891 38.9319C99.9154 39.4629 100.432 40.111 100.81 40.8399C101.218 41.68 101.417 42.6063 101.39 43.5399C101.421 44.7686 101.144 45.9855 100.584 47.0799C100.047 48.0791 99.2758 48.9337 98.3371 49.5709C97.2873 50.2677 96.1213 50.771 94.8941 51.0569C93.4535 51.4031 91.9757 51.571 90.4941 51.5569C89.0791 51.5744 87.6707 51.3617 86.3241 50.9269C85.1606 50.5526 84.0718 49.9772 83.1071 49.2269C82.2458 48.5543 81.5312 47.7128 81.0071 46.7539C80.5052 45.8335 80.2232 44.8094 80.1831 43.7619H87.4881C87.5467 44.1438 87.6904 44.5077 87.9084 44.8267C88.1265 45.1457 88.4135 45.4116 88.7481 45.6049C89.0667 45.8057 89.416 45.9533 89.7821 46.0419C90.1517 46.1365 90.5316 46.1856 90.9131 46.1879C91.7072 46.2228 92.4985 46.0732 93.2251 45.7509C93.4787 45.647 93.6957 45.47 93.8485 45.2424C94.0013 45.0148 94.0829 44.747 94.0831 44.4729C94.0745 44.1754 93.9754 43.8876 93.7991 43.6478C93.6228 43.408 93.3775 43.2277 93.0961 43.1309C92.3011 42.7707 91.4729 42.489 90.6231 42.2899L87.3911 41.4809C86.2643 41.2047 85.1773 40.7864 84.1561 40.2359C83.1791 39.7094 82.3337 38.969 81.6831 38.0699C80.9809 37.009 80.6358 35.7516 80.6981 34.4809C80.6746 33.351 80.9356 32.2334 81.4571 31.2309C81.9594 30.2974 82.6799 29.4991 83.5571 28.9039C84.5281 28.2552 85.6065 27.7839 86.7421 27.5119C88.0646 27.1893 89.4219 27.0318 90.7831 27.0429C92.205 27.0164 93.6222 27.2132 94.9831 27.6259C96.0704 27.9613 97.0845 28.499 97.9721 29.2109C98.7594 29.8519 99.4041 30.6503 99.8651 31.5549C100.318 32.4511 100.613 33.4185 100.738 34.4149L93.5061 34.4189Z" fill="#224390"></path><path d="M102.818 50.9401L111.158 27.6621H118.92L127.26 50.9401H119.66L118.755 47.8691H111.155L110.282 50.9401H102.818ZM114.973 34.6741L112.614 43.0161H117.431L114.973 34.6741Z" fill="#224390"></path><path d="M129.944 50.9399V27.6619H141.067C142.3 27.6565 143.533 27.7428 144.753 27.9199C145.794 28.0622 146.805 28.374 147.745 28.8429C148.559 29.2532 149.249 29.8719 149.745 30.6359C150.26 31.5051 150.512 32.5045 150.472 33.5139C150.477 34.0847 150.39 34.6526 150.214 35.1959C150.049 35.6956 149.813 36.1694 149.514 36.6029C149.229 37.0153 148.898 37.3947 148.529 37.7339C148.187 38.0491 147.819 38.3354 147.429 38.5899C148.607 38.8515 149.64 39.5511 150.321 40.5469C150.984 41.5474 151.328 42.7256 151.308 43.9259C151.343 45.0617 151.099 46.1887 150.596 47.2079C150.131 48.0957 149.438 48.8434 148.588 49.3739C147.614 49.9642 146.541 50.3709 145.42 50.5739C144.061 50.8321 142.68 50.9561 141.297 50.9439L129.944 50.9399ZM137.574 33.0939V36.9739H140.744C141.405 37.0001 142.059 36.8258 142.619 36.4739C142.865 36.3039 143.063 36.073 143.193 35.8038C143.323 35.5346 143.381 35.2362 143.361 34.9379C143.384 34.5691 143.294 34.2021 143.103 33.8859C142.931 33.6376 142.689 33.4458 142.408 33.3349C142.092 33.213 141.759 33.1428 141.421 33.1269C141.054 33.1049 140.667 33.0949 140.258 33.0949L137.574 33.0939ZM137.574 41.2079V45.5079H140.905C141.343 45.5101 141.781 45.4827 142.215 45.4259C142.577 45.3841 142.928 45.2749 143.249 45.1039C143.534 44.9473 143.774 44.7191 143.944 44.4419C144.127 44.1163 144.217 43.7462 144.202 43.3729C144.23 42.9483 144.117 42.5263 143.88 42.1729C143.653 41.8831 143.351 41.6602 143.007 41.5279C142.583 41.3645 142.136 41.2716 141.682 41.2529C141.163 41.2209 140.603 41.2042 140 41.2029L137.574 41.2079Z" fill="#224390"></path></svg> 