<?xml version="1.0" encoding="UTF-8"?> <svg xmlns="http://www.w3.org/2000/svg" width="158" height="76" viewBox="0 0 158 76" fill="none"><path fill-rule="evenodd" clip-rule="evenodd" d="M5.86918 25.768C3.5545 27.8857 1.83141 30.5699 0.869624 33.5561C-0.0921658 36.5423 -0.259471 39.7275 0.384189 42.798C0.929316 45.7637 2.1785 48.5553 4.02671 50.9379C5.87493 53.3205 8.26816 55.2245 11.0052 56.49C13.7422 57.7554 16.7431 58.3452 19.7555 58.2099C22.7678 58.0745 25.7037 57.2179 28.3162 55.712C32.7942 53.194 37.2542 50.647 41.7162 48.112C44.6682 46.438 43.2072 47.393 46.2262 45.676C44.7972 43.188 46.1472 45.554 44.0502 41.962C43.4872 42.332 34.1352 47.603 27.7202 51.284C24.4202 53.184 20.3752 54.397 17.2842 53.906C15.5456 53.7239 13.8666 53.1697 12.3612 52.281V26.415C14.734 24.9996 17.5015 24.3912 20.2492 24.681C23.4399 24.8833 26.4629 26.1811 28.8072 28.355L32.4912 26.155C32.3313 25.965 32.1471 25.7968 31.9432 25.655C30.3067 24.2893 28.5246 23.1081 26.6292 22.133C23.2071 20.5689 19.3912 20.0789 15.6849 20.7279C11.9787 21.3768 8.55624 23.1342 5.86918 25.768Z" fill="white"></path><path fill-rule="evenodd" clip-rule="evenodd" d="M66.0872 52.899C68.4009 50.7806 70.1234 48.0964 71.0851 45.1105C72.0469 42.1245 72.2147 38.9395 71.5722 35.869C71.0269 32.9031 69.7776 30.1114 67.9292 27.7287C66.0808 25.346 63.6874 23.4419 60.9502 22.1765C58.2129 20.911 55.2119 20.3213 52.1993 20.4567C49.1868 20.5922 46.2508 21.449 43.6381 22.955C39.1601 25.473 34.7031 28.02 30.2381 30.555C27.2861 32.229 28.7471 31.274 25.7281 32.991C27.1571 35.479 25.8071 33.113 27.9041 36.704C28.4671 36.334 37.8192 31.063 44.2342 27.382C47.5342 25.482 51.4341 24.269 54.5211 24.76C56.2259 24.8884 57.8703 25.4464 59.3011 26.382V52.251C56.9945 53.6969 54.2622 54.3089 51.5592 53.985C48.3906 53.7817 45.3913 52.4829 43.0751 50.311L39.4282 52.511C39.5949 52.701 39.785 52.869 39.9941 53.011C41.6358 54.3752 43.4222 55.5553 45.3211 56.53C48.7441 58.0938 52.5604 58.5839 56.2674 57.9357C59.9743 57.2875 63.398 55.5315 66.0872 52.899Z" fill="white"></path><path d="M93.5062 34.419C93.4631 34.0631 93.3299 33.7241 93.1192 33.434C92.9258 33.1871 92.6834 32.9828 92.4072 32.834C91.7929 32.5386 91.1166 32.3949 90.4352 32.415C89.8022 32.3729 89.1686 32.4898 88.5922 32.755C88.4123 32.8478 88.2622 32.9894 88.159 33.1636C88.0559 33.3379 88.004 33.5376 88.0092 33.74C88.0083 33.9522 88.0608 34.1612 88.162 34.3477C88.2632 34.5342 88.4098 34.6922 88.5882 34.807C89.055 35.1282 89.5664 35.3789 90.1062 35.551C90.8068 35.7896 91.5199 35.9899 92.2422 36.151C93.0382 36.3343 93.8569 36.5453 94.6982 36.784C95.5345 37.0183 96.3554 37.3042 97.1562 37.64C97.9284 37.9604 98.6476 38.396 99.2892 38.932C99.9155 39.463 100.432 40.1111 100.81 40.84C101.218 41.6801 101.417 42.6064 101.39 43.54C101.421 44.7687 101.144 45.9856 100.584 47.08C100.047 48.0792 99.2759 48.9338 98.3372 49.571C97.2874 50.2678 96.1214 50.7711 94.8942 51.057C93.4536 51.4032 91.9758 51.5712 90.4942 51.557C89.0793 51.5746 87.6709 51.3618 86.3242 50.927C85.1608 50.5527 84.0719 49.9774 83.1072 49.227C82.2459 48.5545 81.5313 47.7129 81.0072 46.754C80.5053 45.8336 80.2233 44.8096 80.1832 43.762H87.4882C87.5468 44.1439 87.6905 44.5079 87.9086 44.8268C88.1266 45.1458 88.4136 45.4118 88.7482 45.605C89.0669 45.8059 89.4161 45.9535 89.7822 46.042C90.1519 46.1367 90.5317 46.1857 90.9132 46.188C91.7073 46.2229 92.4987 46.0733 93.2252 45.751C93.4789 45.6471 93.6959 45.4701 93.8486 45.2425C94.0014 45.0149 94.0831 44.7471 94.0832 44.473C94.0746 44.1755 93.9756 43.8877 93.7992 43.6479C93.6229 43.4082 93.3777 43.2278 93.0962 43.131C92.3013 42.7708 91.473 42.4891 90.6232 42.29L87.3912 41.481C86.2645 41.2049 85.1774 40.7865 84.1562 40.236C83.1792 39.7095 82.3339 38.9691 81.6832 38.07C80.9811 37.0091 80.636 35.7517 80.6982 34.481C80.6747 33.3512 80.9357 32.2335 81.4572 31.231C81.9596 30.2975 82.68 29.4992 83.5572 28.904C84.5282 28.2553 85.6066 27.784 86.7422 27.512C88.0647 27.1894 89.422 27.0319 90.7832 27.043C92.2051 27.0165 93.6223 27.2133 94.9832 27.626C96.0705 27.9614 97.0846 28.4992 97.9722 29.211C98.7595 29.8521 99.4043 30.6504 99.8652 31.555C100.318 32.4512 100.613 33.4186 100.738 34.415L93.5062 34.419Z" fill="white"></path><path d="M102.818 50.94L111.158 27.662H118.92L127.26 50.94H119.66L118.755 47.869H111.155L110.282 50.94H102.818ZM114.973 34.674L112.614 43.016H117.431L114.973 34.674Z" fill="white"></path><path d="M129.944 50.94V27.662H141.067C142.301 27.6567 143.533 27.7429 144.753 27.92C145.794 28.0624 146.805 28.3742 147.745 28.843C148.559 29.2534 149.249 29.872 149.745 30.636C150.26 31.5052 150.512 32.5047 150.472 33.514C150.477 34.0849 150.39 34.6528 150.214 35.196C150.049 35.6958 149.813 36.1695 149.514 36.603C149.229 37.0155 148.899 37.3948 148.529 37.734C148.187 38.0492 147.819 38.3355 147.429 38.59C148.607 38.8517 149.641 39.5513 150.321 40.547C150.984 41.5476 151.329 42.7258 151.308 43.926C151.343 45.0618 151.099 46.1888 150.596 47.208C150.132 48.0958 149.438 48.8435 148.588 49.374C147.614 49.9643 146.541 50.3711 145.42 50.574C144.061 50.8323 142.68 50.9562 141.297 50.944L129.944 50.94ZM137.574 33.094V36.974H140.744C141.405 37.0003 142.059 36.826 142.619 36.474C142.865 36.3041 143.063 36.0732 143.193 35.8039C143.323 35.5347 143.381 35.2364 143.361 34.938C143.384 34.5693 143.294 34.2023 143.103 33.886C142.931 33.6377 142.689 33.446 142.408 33.335C142.093 33.2132 141.759 33.1429 141.421 33.127C141.054 33.105 140.667 33.095 140.258 33.095L137.574 33.094ZM137.574 41.208V45.508H140.905C141.343 45.5103 141.781 45.4829 142.215 45.426C142.577 45.3842 142.928 45.275 143.249 45.104C143.534 44.9474 143.774 44.7193 143.944 44.442C144.127 44.1164 144.217 43.7463 144.202 43.373C144.23 42.9484 144.117 42.5265 143.88 42.173C143.653 41.8832 143.351 41.6604 143.007 41.528C142.584 41.3647 142.136 41.2718 141.682 41.253C141.164 41.221 140.603 41.2043 140 41.203L137.574 41.208Z" fill="white"></path></svg> 